<svg xmlns="http://www.w3.org/2000/svg" viewBox="0 0 600 750" role="img" aria-label="Hand-stitched leather journal">
  <defs>
    <linearGradient id="bg10" x1="0" y1="0" x2="0" y2="1"><stop offset="0" stop-color="#efe7db"/><stop offset="1" stop-color="#ddd0bc"/></linearGradient>
    <linearGradient id="lt" x1="0" y1="0" x2="1" y2="0"><stop offset="0" stop-color="#6b3d22"/><stop offset=".5" stop-color="#8d5731"/><stop offset="1" stop-color="#5b3119"/></linearGradient>
  </defs>
  <rect width="600" height="750" fill="url(#bg10)"/>
  <ellipse cx="300" cy="600" rx="180" ry="26" fill="#000" opacity=".10"/>
  <rect x="152" y="160" width="300" height="404" rx="10" fill="#efe6d2"/>
  <rect x="146" y="150" width="300" height="404" rx="12" fill="url(#lt)"/>
  <rect x="146" y="150" width="34" height="404" rx="12" fill="#4d2916"/>
  <g stroke="#e6c98f" stroke-width="3" stroke-dasharray="10 8" fill="none">
    <rect x="200" y="184" width="212" height="336" rx="8"/>
  </g>
  <g fill="none" stroke="#e6c98f" stroke-width="4" opacity=".9">
    <circle cx="306" cy="352" r="52"/><circle cx="306" cy="352" r="28"/>
    <path d="M306 300v-40M306 404v40M254 352h-40M358 352h40"/>
  </g>
  <path d="M446 300c40 12 50 40 30 66-24-12-34-38-30-66z" fill="#8d5731"/>
</svg>
